<?xml version="1.0" standalone="no"?>
<!DOCTYPE svg PUBLIC "-//W3C//DTD SVG 20010904//EN"
 "http://www.w3.org/TR/2001/REC-SVG-20010904/DTD/svg10.dtd">
<svg version="1.0" xmlns="http://www.w3.org/2000/svg"
 width="300.000000pt" height="180.000000pt" viewBox="0 0 300.000000 180.000000"
 preserveAspectRatio="xMidYMid meet">
<metadata>
Created by potrace 1.10, written by Peter Selinger 2001-2011
</metadata>
<g transform="translate(0.000000,180.000000) scale(0.100000,-0.100000)"
fill="#000000" stroke="none">
<path d="M1405 1474 c-49 -29 -174 -102 -277 -161 l-188 -108 0 -320 0 -320
223 -128 c122 -70 237 -137 255 -148 l32 -21 0 496 c0 273 -3 496 -6 496 -3 0
-25 -12 -50 -26 l-44 -26 0 -139 0 -140 -51 3 -52 3 2 108 c2 104 -4 123 -28
93 -6 -8 -25 -19 -41 -26 l-30 -12 0 -212 0 -211 51 -28 50 -28 -2 108 -2 108
52 2 51 2 0 -195 c0 -107 -2 -194 -5 -194 -3 0 -53 29 -112 63 -60 35 -127 74
-151 87 l-42 24 0 261 0 262 231 132 230 133 107 -62 c59 -34 162 -94 230
-133 l122 -71 0 -261 0 -261 -146 -84 c-81 -47 -151 -86 -155 -88 -5 -2 -9
115 -9 260 l0 263 -43 25 c-23 14 -45 27 -49 28 -5 2 -8 -168 -8 -378 l0 -381
43 26 c23 14 138 80 254 148 l213 122 0 320 0 321 -182 104 c-101 57 -227 130
-281 162 -54 32 -99 58 -100 57 -1 0 -42 -25 -92 -55z m115 -4 c0 -5 11 -12
25 -16 14 -3 25 -10 25 -16 0 -5 4 -7 9 -4 4 3 29 -8 55 -24 26 -17 51 -30 56
-30 6 0 10 -4 10 -10 0 -5 7 -10 15 -10 8 0 15 -5 15 -11 0 -5 5 -7 10 -4 6 3
10 2 10 -2 0 -5 23 -19 50 -32 28 -13 50 -28 50 -33 0 -5 4 -7 9 -3 5 3 16 0
23 -7 8 -7 41 -27 74 -45 l59 -31 3 -304 3 -303 -23 -10 c-13 -6 -22 -17 -20
-24 1 -7 -1 -10 -6 -7 -10 6 -53 -15 -127 -62 -27 -17 -58 -32 -67 -32 -10 0
-18 -5 -18 -11 0 -6 -9 -9 -19 -6 -13 3 -18 0 -15 -8 3 -7 -7 -18 -23 -24 -15
-6 -47 -23 -70 -37 l-43 -25 0 44 c0 24 -3 59 -7 77 -3 19 -2 31 3 28 5 -4 8
93 7 235 -2 153 1 237 7 231 5 -5 10 -113 10 -252 1 -143 5 -242 11 -242 5 0
9 -6 9 -14 0 -24 37 -24 87 -1 26 13 50 22 52 19 2 -2 11 5 20 15 9 10 26 21
39 25 12 4 22 11 22 16 0 5 7 7 15 4 8 -4 15 -1 15 5 0 6 12 17 28 25 87 45
93 65 92 333 -1 223 -8 276 -36 287 -9 3 -12 11 -8 18 5 7 2 9 -8 5 -9 -3 -23
2 -33 13 -13 14 -13 19 -3 23 7 3 -2 4 -20 2 -27 -3 -32 -1 -28 11 3 9 2 12
-5 9 -6 -4 -18 0 -27 8 -9 8 -41 27 -69 42 -29 15 -50 32 -47 37 4 6 -2 7 -16
3 -15 -5 -20 -4 -16 4 4 6 1 11 -6 11 -7 0 -26 7 -43 16 -97 52 -127 65 -144
59 -11 -3 -30 -8 -43 -10 -12 -3 -34 -14 -48 -25 -14 -11 -36 -26 -50 -32 -14
-7 -36 -19 -50 -29 -59 -39 -122 -69 -132 -63 -7 4 -8 2 -4 -5 4 -6 0 -14 -11
-18 -25 -10 -83 -49 -115 -78 l-27 -24 -1 -253 c0 -139 0 -261 0 -271 0 -10 4
-15 10 -12 6 3 7 -1 4 -9 -4 -11 2 -19 17 -25 13 -5 20 -10 14 -11 -11 -1 64
-39 78 -40 5 0 23 -10 40 -22 44 -32 139 -78 159 -78 9 0 24 7 32 16 13 13 16
45 16 198 0 170 -1 184 -20 204 -29 31 -89 30 -124 -3 -21 -19 -26 -34 -27
-72 -1 -26 -1 -54 0 -62 2 -7 -4 -11 -11 -9 -16 6 -19 351 -3 356 6 1 12 -26
15 -62 4 -52 9 -67 30 -85 30 -24 61 -26 100 -6 37 19 42 36 42 163 0 101 5
121 31 122 5 0 6 -4 2 -9 -10 -17 -11 -831 -1 -831 5 0 7 -3 4 -6 -8 -7 -76
28 -169 87 -42 27 -83 49 -92 49 -10 0 -17 5 -17 10 0 6 -7 10 -15 10 -8 0
-15 4 -15 9 0 4 -27 21 -60 37 -33 15 -62 34 -64 41 -9 22 -8 595 1 603 4 4
44 26 88 49 43 23 75 41 70 41 -9 0 93 57 143 79 12 6 22 15 22 21 0 6 5 8 11
5 5 -4 18 -1 27 7 9 8 29 20 44 27 15 8 25 18 22 23 -5 8 14 12 51 10 12 0 14
2 6 5 -11 5 -11 7 0 14 19 12 49 11 49 -1z"/>
<path d="M1552 1203 c3 -56 4 -57 51 -85 l47 -27 0 58 0 59 -44 26 c-25 14
-47 26 -51 26 -3 0 -5 -26 -3 -57z"/>
</g>
</svg>
